<?xml version="1.0" encoding="UTF-8" standalone="no"?>
<!-- Created with Inkscape (http://www.inkscape.org/) -->

<svg
   xmlns:dc="http://purl.org/dc/elements/1.1/"
   xmlns:cc="http://creativecommons.org/ns#"
   xmlns:rdf="http://www.w3.org/1999/02/22-rdf-syntax-ns#"
   xmlns:svg="http://www.w3.org/2000/svg"
   xmlns="http://www.w3.org/2000/svg"
   xmlns:sodipodi="http://sodipodi.sourceforge.net/DTD/sodipodi-0.dtd"
   xmlns:inkscape="http://www.inkscape.org/namespaces/inkscape"
   width="400"
   height="150"
   id="svg2"
   version="1.1"
   inkscape:version="0.48.4 r9939"
   sodipodi:docname="logo.svg">
  <defs
     id="defs4" />
  <sodipodi:namedview
     id="base"
     pagecolor="#ffffff"
     bordercolor="#666666"
     borderopacity="1.0"
     inkscape:pageopacity="0.0"
     inkscape:pageshadow="2"
     inkscape:zoom="1"
     inkscape:cx="337.65943"
     inkscape:cy="47.363169"
     inkscape:document-units="px"
     inkscape:current-layer="layer1"
     showgrid="false"
     inkscape:window-width="1920"
     inkscape:window-height="1000"
     inkscape:window-x="1920"
     inkscape:window-y="29"
     inkscape:window-maximized="1" />
  <metadata
     id="metadata7">
    <rdf:RDF>
      <cc:Work
         rdf:about="">
        <dc:format>image/svg+xml</dc:format>
        <dc:type
           rdf:resource="http://purl.org/dc/dcmitype/StillImage" />
        <dc:title></dc:title>
      </cc:Work>
    </rdf:RDF>
  </metadata>
  <g
     inkscape:label="Layer 1"
     inkscape:groupmode="layer"
     id="layer1"
     transform="translate(0,-902.36218)">
    <g
       id="g4183"
       transform="matrix(0.78533482,0,0,0.78533482,-72.226366,672.83426)">
      <g
         transform="translate(0,-191.75)"
         id="g4152">
        <path
           inkscape:connector-curvature="0"
           style="fill:#ecf0f1;fill-opacity:1;stroke:none"
           d="m 167.625,529.5 c -2.70049,0.008 -5.3121,0.12849 -7.78125,0.34375 -2.56813,0.22389 -4.99463,0.55228 -7.3125,1 -2.29159,0.44783 -4.43076,0.98793 -6.40625,1.59375 -1.97549,0.60582 -3.80937,1.29869 -5.46875,2.0625 -1.63309,0.7639 -3.06627,1.59128 -4.34375,2.5 -1.27748,0.90872 -2.39062,1.88396 -3.3125,2.9375 -0.89557,1.0273 -1.55222,2.08123 -2,3.1875 -0.44778,1.10627 -0.68752,2.25226 -0.6875,3.4375 l 0,51.21875 c -1e-5,1.15896 0.23972,2.2819 0.6875,3.375 0.44778,1.0931 1.10443,2.16026 2,3.1875 0.92188,1.02726 2.03502,1.97945 3.3125,2.875 1.27748,0.89555 2.71066,1.73616 4.34375,2.5 1.65938,0.76387 3.49326,1.45668 5.46875,2.0625 1.97549,0.60582 4.11466,1.11473 6.40625,1.5625 2.31788,0.44779 4.74437,0.77611 7.3125,1 2.56813,0.22389 5.27536,0.34376 8.09375,0.34375 0.022,0 0.0405,10e-6 0.0625,0 l 0,-84.9375 -0.375,-0.25 z"
           id="path4013" />
        <path
           inkscape:connector-curvature="0"
           style="fill:#bdc3c7;fill-opacity:1;stroke:none"
           d="m 168,614.6875 c 2.9257,-0.002 5.69814,-0.12153 8.3125,-0.34375 2.63398,-0.22389 5.11956,-0.55222 7.4375,-1 2.31786,-0.47411 4.44393,-1.00601 6.40625,-1.625 1.96232,-0.61899 3.73697,-1.32988 5.34375,-2.09375 1.63302,-0.79018 3.07453,-1.6357 4.3125,-2.53125 1.23797,-0.89555 2.28208,-1.84283 3.125,-2.84375 0.86916,-1.02724 1.53414,-2.07632 1.96875,-3.15625 0.43461,-1.07993 0.62494,-2.17988 0.625,-3.3125 l 0,-51.21875 c -6e-5,-1.13256 -0.19039,-2.23257 -0.625,-3.3125 -0.43461,-1.07993 -1.09959,-2.12895 -1.96875,-3.15625 -0.84292,-1.0272 -1.88703,-1.99753 -3.125,-2.90625 -1.23797,-0.90872 -2.67948,-1.74101 -4.3125,-2.53125 -1.60677,-0.79014 -3.38143,-1.50601 -5.34375,-2.125 -1.96232,-0.61899 -4.08839,-1.14592 -6.40625,-1.59375 -2.31795,-0.47406 -4.80352,-0.82544 -7.4375,-1.0625 -2.49622,-0.22466 -5.15743,-0.33195 -7.9375,-0.34375 L 168,529.75 l 0,84.9375 z"
           id="path4006" />
        <path
           inkscape:connector-curvature="0"
           style="fill:#e74c3c;fill-opacity:1;stroke:none"
           d="m 143.375,564.625 0,0.40625 -0.0312,-0.0312 0,15.6875 -13.0625,-7.53125 0,3.53125 16.59375,9.5625 0,-0.0625 0,-16 21.25,12.25 0,-3.53125 -24.75,-14.28125 z"
           id="rect4015" />
        <path
           inkscape:connector-curvature="0"
           style="fill:#c0392b;fill-opacity:1;stroke:none"
           d="m 181.90625,523.75 -3.53125,2.5 0,46.6875 -10.34375,5.96875 0,3.53125 10.34375,-5.96875 3.53125,-2 0,-50.71875 z"
           id="path4056" />
        <path
           inkscape:connector-curvature="0"
           id="path4074"
           d="m 205.78125,555.82535 -16.59375,9.5625 0,3.53125 0,22.8125 -21.25,12.25 0,3.53125 24.75,-14.28125 0,-1.53125 0.0312,-0.0312 0,-24.78125 13.0625,-7.53125 0,-3.53125 z"
           style="fill:#2980b9;fill-opacity:1;stroke:none" />
        <path
           inkscape:connector-curvature="0"
           style="fill:#3498db;fill-opacity:1;stroke:none"
           d="m 128.28125,545.0625 0,3.53125 12.96875,7.46875 0,-0.0312 4.65625,2.6875 0,-0.0312 8.25,4.75 0,36.53125 3.53125,1.5625 10.34375,5.96875 0,-3.53125 L 157.6875,598 l 0,-36.0625 -0.0937,-0.0312 -1.0625,-0.625 -12.3125,-7.09375 0,0.0312 -4.25,-2.4375 -7.4375,-4.3125 0,0.0625 -4.25,-2.46875 z"
           id="path4080" />
        <path
           style="fill:#27ae60;fill-opacity:1;stroke:none"
           d="m 218.03125,537.54765 -11.125,6.40625 -2.25,1.3125 -7.59375,4.375 0,-3.46875 0.0312,-0.0312 0,-3.53125 -11.125,6.40625 -10.4375,6 -2.25,1.3125 -0.6875,0.40625 -4.59375,2.65625 0,3.5 5.28125,-3.03125 10.4375,-6 2.25,-1.3125 7.5625,-4.34375 0,3.46875 0,1.71875 0,1.8125 11.125,-6.40625 2.25,-1.3125 11.125,-6.40625 0,-3.53125 z"
           id="path4104"
           inkscape:connector-curvature="0" />
        <path
           inkscape:connector-curvature="0"
           style="fill:#2ecc71;fill-opacity:1;stroke:none"
           d="m 134.875,529.625 0,14.1875 0.0312,0 11.125,6.40625 0.28125,0.15625 1.96875,1.15625 6.375,3.65625 1.96875,1.15625 0.28125,0.15625 2.5,1.4375 8.625,4.96875 0,-3.53125 -8.625,-4.96875 -2.5,-1.4375 -0.28125,-0.15625 -1.96875,-1.15625 -6.375,-3.65625 -1.96875,-1.15625 -0.28125,-0.15625 -7.625,-4.375 0,-12.6875 -3.53125,0 z"
           id="path4129" />
        <path
           d="m 167.93354,511.96705 c 5.26789,1.2e-4 10.37781,0.31619 15.32977,0.94823 4.9518,0.63227 9.5876,1.55417 13.90743,2.76568 4.3723,1.15907 8.34961,2.58142 11.93193,4.26705 3.5821,1.63318 6.63752,3.5033 9.16626,5.61038 2.58118,2.10729 4.583,4.42519 6.00548,6.95371 1.42222,2.47604 2.1334,5.11002 2.13352,7.90195 l 0,63.3736 c -1.2e-4,2.73936 -0.68496,5.32066 -2.0545,7.7439 -1.31712,2.42328 -3.18724,4.66217 -5.61038,6.71665 -2.42338,2.05452 -5.32076,3.92465 -8.69214,5.61039 -3.37161,1.68575 -7.08552,3.1081 -11.14175,4.26705 1.21153,3.95097 2.29147,7.8756 3.2398,11.77389 1.00081,3.89829 1.97538,7.87559 2.92372,11.93194 l -17.70036,7.11175 c -0.2108,-2.21257 -0.57956,-4.74119 -1.10627,-7.58587 -0.42152,-2.42328 -1.001,-5.32065 -1.73843,-8.69214 -0.7376,-3.3715 -1.68583,-7.11175 -2.8447,-11.22076 -2.21262,0.31608 -4.47784,0.5268 -6.79567,0.63216 -2.31798,0.10536 -4.63588,0.15804 -6.95371,0.15804 -5.32071,0 -10.45697,-0.31608 -15.40879,-0.94824 -4.89926,-0.63215 -9.50872,-1.5277 -13.82841,-2.68666 -4.31976,-1.21162 -8.27073,-2.63397 -11.85291,-4.26705 -3.52956,-1.68574 -6.58498,-3.5822 -9.16626,-5.6894 -2.52864,-2.10717 -4.50412,-4.39873 -5.92646,-6.87469 -1.42236,-2.5286 -2.13353,-5.18892 -2.13352,-7.98096 l 0,-63.3736 c -10e-6,-2.79193 0.71116,-5.42591 2.13352,-7.90195 1.42234,-2.52852 3.39782,-4.84642 5.92646,-6.95371 2.5286,-2.10708 5.58402,-3.9772 9.16626,-5.61038 3.58218,-1.68563 7.53315,-3.10798 11.85291,-4.26705 4.31969,-1.21151 8.92915,-2.13341 13.82841,-2.76568 4.95182,-0.63204 10.08808,-0.94811 15.40879,-0.94823 m 37.61326,34.61051 c -1.1e-4,-2.26513 -0.86932,-4.425 -2.60764,-6.47959 -1.68585,-2.05441 -4.16179,-3.87186 -7.42783,-5.45234 -3.21355,-1.58029 -7.13818,-2.81826 -11.7739,-3.71392 -4.63589,-0.94813 -9.90385,-1.42224 -15.80389,-1.42235 -5.63678,1.1e-4 -10.77304,0.44788 -15.40879,1.34333 -4.58318,0.89566 -8.53415,2.10729 -11.85292,3.6349 -3.26618,1.5278 -5.82114,3.34525 -7.66489,5.45234 -1.79114,2.0546 -2.68669,4.26714 -2.68666,6.63763 l 0,51.20461 c -3e-5,2.31793 0.89552,4.50414 2.68666,6.55861 1.84375,2.05453 4.39871,3.84564 7.66489,5.37332 3.31877,1.52773 7.26974,2.73937 11.85292,3.6349 4.63575,0.89557 9.77201,1.34335 15.40879,1.34333 5.90004,2e-5 11.168,-0.44776 15.80389,-1.34333 4.63572,-0.94821 8.56035,-2.18618 11.7739,-3.71392 3.26604,-1.58036 5.74198,-3.37147 7.42783,-5.37332 1.73832,-2.05447 2.60753,-4.21434 2.60764,-6.47959 l 0,-51.20461"
           style="font-size:161.83183289px;font-style:normal;font-variant:normal;font-weight:normal;font-stretch:normal;line-height:125%;letter-spacing:0px;word-spacing:0px;fill:#2c3e50;fill-opacity:1;stroke:none;font-family:Revalia;-inkscape-font-specification:Revalia"
           id="path3955"
           inkscape:connector-curvature="0" />
      </g>
      <path
         d="m 268.28824,411.65012 c -3e-5,2.42329 0.86918,4.45145 2.60764,6.08449 1.79107,1.63309 4.16166,2.97642 7.11175,4.03 3.0027,1.00093 6.45321,1.73844 10.35155,2.21254 3.89824,0.42145 7.95457,0.63217 12.169,0.63216 4.42502,1e-5 8.5867,-0.23705 12.48507,-0.71118 3.89821,-0.52678 7.29604,-1.29063 10.19351,-2.29156 2.89729,-1.05358 5.18885,-2.3969 6.87469,-4.02999 1.68565,-1.63305 2.52853,-3.60853 2.52862,-5.92646 l 0,-61.47714 21.01918,1.58039 0,64.95399 c -1.2e-4,2.84472 -0.71129,5.45236 -2.13353,7.82293 -1.36978,2.37059 -3.29259,4.50412 -5.76842,6.40057 -2.47605,1.8438 -5.39976,3.45052 -8.77116,4.82019 -3.37159,1.36967 -7.03282,2.50228 -10.9837,3.39784 -3.89838,0.89555 -8.03373,1.55404 -12.40605,1.97548 -4.31981,0.47412 -8.66587,0.71117 -13.03821,0.71118 -4.42515,-1e-5 -8.79756,-0.23706 -13.11723,-0.71118 -4.31978,-0.42144 -8.45513,-1.07993 -12.40606,-1.97548 -3.89832,-0.89556 -7.53321,-2.02817 -10.90468,-3.39784 -3.37152,-1.36967 -6.29524,-2.97639 -8.77116,-4.82019 -2.47596,-1.89645 -4.4251,-4.00364 -5.84744,-6.32155 -1.36968,-2.37057 -2.05451,-5.00455 -2.0545,-7.90195 l 0,-64.95399 20.86113,-1.58039 0,61.47714"
         style="font-size:161.83183289px;font-style:normal;font-variant:normal;font-weight:normal;font-stretch:normal;line-height:125%;letter-spacing:0px;word-spacing:0px;fill:#2c3e50;fill-opacity:1;stroke:none;font-family:Revalia;-inkscape-font-specification:Revalia"
         id="path3901"
         inkscape:connector-curvature="0" />
      <path
         d="m 467.25924,408.01522 c -1.3171,-1.15892 -2.95016,-2.29153 -4.89921,-3.39783 -1.94924,-1.10624 -4.34616,-2.08081 -7.19077,-2.92372 -2.84479,-0.89552 -6.24262,-1.60669 -10.19351,-2.13353 -3.89837,-0.57943 -8.48149,-0.86917 -13.74938,-0.86921 -4.68855,4e-5 -9.13998,0.1054 -13.35429,0.31607 -4.16174,0.15808 -7.82297,0.68488 -10.9837,1.58039 -3.16082,0.84292 -5.6631,2.21259 -7.50685,4.10902 -1.84382,1.8965 -2.76571,4.53047 -2.76568,7.90194 l 0,10.11449 c 4.63577,0.73753 9.74569,1.34335 15.32977,1.81745 5.58399,0.47413 11.80018,0.71119 18.64859,0.71117 5.47861,2e-5 11.2997,-0.18436 17.4633,-0.55313 6.21611,-0.42143 12.61668,-1.23796 19.20173,-2.44961 l 0,-14.2235 m -35.55876,-57.84224 c 2.63391,9e-5 5.82103,0.13179 9.56136,0.3951 3.74017,0.26349 7.63846,0.73761 11.69487,1.42235 4.05624,0.63225 8.05989,1.5278 12.01096,2.68666 4.00355,1.10636 7.58576,2.58139 10.74665,4.42509 3.21334,1.79119 5.79464,3.95105 7.7439,6.4796 1.94903,2.52869 2.9236,5.50509 2.92372,8.9292 l 0,61.16105 c -4.4252,0.89556 -9.42976,1.65941 -15.01369,2.29156 -4.79395,0.57948 -10.50969,1.10628 -17.14722,1.58039 -6.63772,0.47412 -14.0392,0.71118 -22.20447,0.71118 -8.11272,0 -16.75217,-0.34242 -25.91838,-1.02726 -9.11361,-0.68483 -18.64861,-1.87012 -28.60504,-3.55587 l 0,-28.447 c -10e-6,-3.05539 0.71116,-5.7157 2.13353,-7.98097 1.47501,-2.31786 3.47683,-4.29334 6.00547,-5.92646 2.5286,-1.63302 5.505,-2.97634 8.9292,-4.02999 3.42414,-1.05354 7.11172,-1.89641 11.06272,-2.52862 3.95093,-0.6321 8.05994,-1.05354 12.32704,-1.26431 4.26699,-0.26334 8.53404,-0.39504 12.80115,-0.3951 6.47952,6e-5 11.98454,0.42149 16.51506,1.26431 4.58305,0.79025 8.37598,1.65946 11.37881,2.60764 3.47675,1.15901 6.34779,2.44966 8.61312,3.87196 l 0,-12.80115 c -1.1e-4,-2.15981 -0.5269,-4.00359 -1.58039,-5.53136 -1.0537,-1.58033 -2.47605,-2.89732 -4.26705,-3.95098 -1.79121,-1.1062 -3.84571,-1.97541 -6.16352,-2.60764 -2.31799,-0.68476 -4.74125,-1.21156 -7.26979,-1.58039 -2.5287,-0.36868 -5.11,-0.60574 -7.74391,-0.71117 -2.58137,-0.10529 -5.00463,-0.15797 -7.26979,-0.15804 -2.37065,7e-5 -4.89927,0.0791 -7.58586,0.23706 -2.68672,0.10543 -5.37338,0.34249 -8.05999,0.71117 -2.63403,0.36883 -5.18899,0.89563 -7.66488,1.58039 -2.42331,0.63223 -4.58317,1.50144 -6.4796,2.60764 -1.8965,1.10634 -3.42421,2.44967 -4.58313,4.02999 -1.1063,1.52778 -1.65944,3.37156 -1.6594,5.53137 l -19.59683,-5.05725 c -1e-5,-3.52947 0.8692,-6.58488 2.60764,-9.16626 1.73841,-2.6339 4.02998,-4.87278 6.8747,-6.71665 2.89735,-1.8437 6.21616,-3.34507 9.95645,-4.50411 3.74021,-1.21154 7.61216,-2.13343 11.61586,-2.76568 4.05628,-0.68474 8.08627,-1.15886 12.08997,-1.42235 4.00359,-0.26331 7.74384,-0.39501 11.22076,-0.3951"
         style="font-size:161.83183289px;font-style:normal;font-variant:normal;font-weight:normal;font-stretch:normal;line-height:125%;letter-spacing:0px;word-spacing:0px;fill:#2c3e50;fill-opacity:1;stroke:none;font-family:Revalia;-inkscape-font-specification:Revalia"
         id="path3903"
         inkscape:connector-curvature="0" />
      <path
         d="m 534.10966,440.25516 -20.07094,0 0,-90.08218 20.07094,0 0,90.08218 m -9.95645,-121.37388 c 3.89826,1.2e-4 6.98002,0.65862 9.24528,1.97549 2.26518,1.26443 3.39779,3.29259 3.39783,6.0845 l 0,3.95097 c -4e-5,2.52873 -1.13265,4.34617 -3.39783,5.45234 -2.26526,1.10638 -5.34702,1.65951 -9.24528,1.65941 -3.74028,1e-4 -6.76935,-0.55303 -9.08724,-1.65941 -2.26523,-1.10617 -3.39785,-2.92361 -3.39783,-5.45234 l 0,-3.95097 c -2e-5,-2.79191 1.1326,-4.82007 3.39783,-6.0845 2.31789,-1.31687 5.34696,-1.97537 9.08724,-1.97549"
         style="font-size:161.83183289px;font-style:normal;font-variant:normal;font-weight:normal;font-stretch:normal;line-height:125%;letter-spacing:0px;word-spacing:0px;fill:#2c3e50;fill-opacity:1;stroke:none;font-family:Revalia;-inkscape-font-specification:Revalia"
         id="path3905"
         inkscape:connector-curvature="0" />
      <path
         d="m 585.15623,440.25516 -18.01643,0 0,-118.68722 18.01643,0 0,118.68722"
         style="font-size:161.83183289px;font-style:normal;font-variant:normal;font-weight:normal;font-stretch:normal;line-height:125%;letter-spacing:0px;word-spacing:0px;fill:#2c3e50;fill-opacity:1;stroke:none;font-family:Revalia;-inkscape-font-specification:Revalia"
         id="path3907"
         inkscape:connector-curvature="0" />
    </g>
  </g>
</svg>
