<?xml version="1.0" encoding="UTF-8" standalone="no"?>
<!-- Created with Inkscape (http://www.inkscape.org/) -->

<svg
   xmlns:dc="http://purl.org/dc/elements/1.1/"
   xmlns:cc="http://creativecommons.org/ns#"
   xmlns:rdf="http://www.w3.org/1999/02/22-rdf-syntax-ns#"
   xmlns:svg="http://www.w3.org/2000/svg"
   xmlns="http://www.w3.org/2000/svg"
   xmlns:sodipodi="http://sodipodi.sourceforge.net/DTD/sodipodi-0.dtd"
   xmlns:inkscape="http://www.inkscape.org/namespaces/inkscape"
   width="300"
   height="100"
   id="svg2"
   version="1.1"
   inkscape:version="0.48.4 r9939"
   sodipodi:docname="New document 1">
  <defs
     id="defs4" />
  <sodipodi:namedview
     id="base"
     pagecolor="#ffffff"
     bordercolor="#666666"
     borderopacity="1.0"
     inkscape:pageopacity="0.0"
     inkscape:pageshadow="2"
     inkscape:zoom="1"
     inkscape:cx="190.84253"
     inkscape:cy="-42.729947"
     inkscape:document-units="px"
     inkscape:current-layer="layer1"
     showgrid="false"
     fit-margin-top="0"
     fit-margin-left="0"
     fit-margin-right="0"
     fit-margin-bottom="0"
     inkscape:window-width="1920"
     inkscape:window-height="1000"
     inkscape:window-x="1920"
     inkscape:window-y="29"
     inkscape:window-maximized="1" />
  <metadata
     id="metadata7">
    <rdf:RDF>
      <cc:Work
         rdf:about="">
        <dc:format>image/svg+xml</dc:format>
        <dc:type
           rdf:resource="http://purl.org/dc/dcmitype/StillImage" />
        <dc:title></dc:title>
      </cc:Work>
    </rdf:RDF>
  </metadata>
  <g
     inkscape:label="Layer 1"
     inkscape:groupmode="layer"
     id="layer1"
     transform="translate(-351.625,-368.75)">
    <g
       id="g4027"
       transform="matrix(0.94811574,0,0,0.94811574,26.243806,20.975251)">
      <path
         inkscape:connector-curvature="0"
         id="path4003"
         style="font-size:102.05001831px;font-style:normal;font-variant:normal;font-weight:normal;font-stretch:normal;line-height:125%;letter-spacing:0px;word-spacing:0px;fill:#1a1a1a;fill-opacity:1;stroke:none;font-family:Revalia;-inkscape-font-specification:Revalia"
         d="m 619.30688,451.89697 -12.6566,0 0,-56.80518 12.6566,0 0,56.80518 m -6.27847,-76.53751 c 2.45822,8e-5 4.40155,0.41532 5.83,1.24573 1.42842,0.79734 2.14263,2.07628 2.14266,3.83684 l 0,2.49145 c -3e-5,1.5946 -0.71424,2.74067 -2.14266,3.43821 -1.42845,0.69767 -3.37178,1.04648 -5.83,1.04641 -2.35859,7e-5 -4.26871,-0.34874 -5.73035,-1.04641 -1.42844,-0.69754 -2.14266,-1.84361 -2.14265,-3.43821 l 0,-2.49145 c -10e-6,-1.76056 0.71421,-3.0395 2.14265,-3.83684 1.46164,-0.83041 3.37176,-1.24565 5.73035,-1.24573" />
      <path
         id="path3917"
         d="M 425.28125,399.0625 412.125,411.5 l 0,18.65625 c -7e-5,1.42846 -0.56007,2.79821 -1.65625,4.09375 -1.06308,1.26235 -2.62796,2.40968 -4.6875,3.40625 -2.02644,0.96337 -4.483,1.74581 -7.40625,2.34375 -2.92336,0.56474 -6.24822,0.84376 -9.96875,0.84375 -2.45763,10e-6 -4.56289,-0.32378 -6.71875,-0.59375 l -10.21875,9.65625 c 2.30647,0.55743 4.66196,1.07635 7.21875,1.40625 3.12259,0.39864 6.36355,0.59375 9.71875,0.59375 1.46161,0 2.9133,-0.0274 4.375,-0.0937 1.46161,-0.0664 2.88599,-0.20693 4.28125,-0.40625 0.73078,2.59111 1.34738,4.93645 1.8125,7.0625 0.46502,2.12603 0.82794,3.97189 1.09375,5.5 0.33214,1.79383 0.55457,3.38602 0.6875,4.78125 l 11.15625,-4.5 c -0.59801,-2.5579 -1.21264,-5.07302 -1.84375,-7.53125 -0.59801,-2.45824 -1.26727,-4.9148 -2.03125,-7.40625 2.55783,-0.73082 4.90514,-1.62448 7.03125,-2.6875 2.12597,-1.06302 3.94058,-2.26694 5.46875,-3.5625 1.52801,-1.29555 2.70069,-2.69065 3.53125,-4.21875 0.86363,-1.52808 1.31242,-3.14757 1.3125,-4.875 l 0,-34.90625 z"
         style="font-size:102.05001831px;font-style:normal;font-variant:normal;font-weight:normal;font-stretch:normal;line-height:125%;letter-spacing:0px;word-spacing:0px;fill:#0088aa;fill-opacity:1;stroke:none;font-family:Revalia;-inkscape-font-specification:Revalia"
         inkscape:connector-curvature="0" />
      <path
         id="path3014"
         d="m 388.40625,376.0625 c -3.3552,7e-5 -6.59616,0.19519 -9.71875,0.59375 -3.08943,0.3987 -5.99479,0.98603 -8.71875,1.75 -2.72402,0.7309 -5.20985,1.62455 -7.46875,2.6875 -2.25893,1.02987 -4.18673,2.20255 -5.78125,3.53125 -1.59454,1.32885 -2.85308,2.78053 -3.75,4.375 -0.89693,1.56137 -1.34376,3.23943 -1.34375,5 l 0,39.96875 c -10e-6,1.76065 0.44682,3.43674 1.34375,5.03125 0.89692,1.56133 2.15546,2.98373 3.75,4.3125 1.62774,1.32878 3.55554,2.53074 5.78125,3.59375 0.97331,0.44372 2.15909,0.76187 3.21875,1.15625 l 9.65625,-9.09375 c -1.41089,-0.41254 -2.99209,-0.74535 -4.15625,-1.28125 -2.05963,-0.96335 -3.68109,-2.07943 -4.84375,-3.375 -1.12948,-1.29554 -1.68752,-2.69458 -1.6875,-4.15625 l 0,-32.28125 c -2e-5,-1.49482 0.55802,-2.89188 1.6875,-4.1875 1.16266,-1.32872 2.78412,-2.47407 4.84375,-3.4375 2.09279,-0.9633 4.57863,-1.71645 7.46875,-2.28125 2.92327,-0.56466 6.16423,-0.84369 9.71875,-0.84375 3.72053,6e-5 7.04539,0.30837 9.96875,0.90625 2.92325,0.5648 5.37981,1.31598 7.40625,2.3125 2.05954,0.99664 3.62442,2.142 4.6875,3.4375 1.09618,1.29561 1.65618,2.66537 1.65625,4.09375 l 0,6.375 12.90625,-12.1875 c -0.21085,-1.04861 -0.53572,-2.09101 -1.09375,-3.0625 -0.897,-1.59447 -2.18482,-3.04615 -3.8125,-4.375 -1.5946,-1.3287 -3.49116,-2.50138 -5.75,-3.53125 -2.25899,-1.06295 -4.7741,-1.9566 -7.53125,-2.6875 -2.72405,-0.76397 -5.65869,-1.3513 -8.78125,-1.75 -3.12268,-0.39856 -6.33436,-0.59368 -9.65625,-0.59375 z"
         style="font-size:102.05001831px;font-style:normal;font-variant:normal;font-weight:normal;font-stretch:normal;line-height:125%;letter-spacing:0px;word-spacing:0px;fill:#1a1a1a;fill-opacity:1;stroke:none;font-family:Revalia;-inkscape-font-specification:Revalia"
         inkscape:connector-curvature="0" />
      <path
         d="m 451.68174,433.85883 c -2e-5,1.52811 0.5481,2.80706 1.64436,3.83685 1.12943,1.02981 2.62431,1.8769 4.48462,2.54128 1.89348,0.63118 4.06934,1.09625 6.52761,1.39522 2.4582,0.26576 5.01609,0.39864 7.67368,0.39863 2.79039,1e-5 5.41472,-0.14948 7.873,-0.44846 2.45819,-0.33219 4.60084,-0.81387 6.42796,-1.44505 1.82701,-0.66437 3.27205,-1.51147 4.33513,-2.54128 1.06296,-1.02979 1.59447,-2.27551 1.59453,-3.73719 l 0,-38.76704 13.25455,0.99658 0,40.95953 c -8e-5,1.79386 -0.44854,3.43822 -1.34539,4.93308 -0.86378,1.49488 -2.07628,2.84027 -3.63752,4.03616 -1.56138,1.16268 -3.40506,2.17587 -5.53104,3.03957 -2.1261,0.86371 -4.43485,1.57793 -6.92624,2.14266 -2.45829,0.56473 -5.06601,0.97997 -7.82317,1.24572 -2.72404,0.29898 -5.46464,0.44846 -8.22181,0.44846 -2.79046,0 -5.54767,-0.14948 -8.27163,-0.44846 -2.72402,-0.26575 -5.33174,-0.68099 -7.82317,-1.24572 -2.45826,-0.56473 -4.75039,-1.27895 -6.87642,-2.14266 -2.12605,-0.8637 -3.96973,-1.87689 -5.53103,-3.03957 -1.56132,-1.19589 -2.79044,-2.52467 -3.68735,-3.98633 -0.86371,-1.49486 -1.29556,-3.15583 -1.29556,-4.98291 l 0,-40.95953 13.15489,-0.99658 0,38.76704"
         style="font-size:102.05001831px;font-style:normal;font-variant:normal;font-weight:normal;font-stretch:normal;line-height:125%;letter-spacing:0px;word-spacing:0px;fill:#1a1a1a;fill-opacity:1;stroke:none;font-family:Revalia;-inkscape-font-specification:Revalia"
         id="path3016"
         inkscape:connector-curvature="0" />
      <path
         d="m 577.15144,431.5667 c -0.83055,-0.73081 -1.86035,-1.44503 -3.08941,-2.14266 -1.22917,-0.69758 -2.74066,-1.31214 -4.53444,-1.84367 -1.79391,-0.56471 -3.93656,-1.01317 -6.42796,-1.34539 -2.45828,-0.36539 -5.34837,-0.54809 -8.67026,-0.54812 -2.95657,3e-5 -5.76361,0.0665 -8.42112,0.19932 -2.62437,0.0997 -4.93311,0.43187 -6.92625,0.99658 -1.99319,0.53153 -3.57111,1.39524 -4.73377,2.59111 -1.1627,1.19592 -1.74404,2.85689 -1.74401,4.98291 l 0,6.37813 c 2.92328,0.46508 6.14556,0.84711 9.66684,1.14607 3.52123,0.29898 7.44111,0.44847 11.75967,0.44846 3.45478,10e-6 7.12552,-0.11626 11.01224,-0.3488 3.91983,-0.26575 7.95598,-0.78065 12.10847,-1.5447 l 0,-8.96924 m -22.4231,-36.47491 c 1.66093,5e-5 3.6707,0.0831 6.02932,0.24914 2.35853,0.16616 4.81676,0.46513 7.37471,0.89693 2.55784,0.39868 5.08251,0.96341 7.57403,1.69419 2.5246,0.69766 4.78352,1.6278 6.77675,2.79043 2.02632,1.12951 3.65407,2.4915 4.88326,4.08598 1.22904,1.59458 1.8436,3.47147 1.84367,5.63069 l 0,38.56773 c -2.7905,0.56474 -5.94634,1.04642 -9.46753,1.44505 -3.02303,0.36541 -6.62733,0.69761 -10.81291,0.99658 -4.1857,0.29898 -8.85302,0.44846 -14.00198,0.44846 -5.11583,0 -10.56381,-0.21592 -16.34395,-0.64778 -5.74698,-0.43185 -11.75969,-1.17928 -18.03814,-2.24231 l 0,-17.93848 c -10e-6,-1.9267 0.44845,-3.60428 1.34539,-5.03274 0.93013,-1.46162 2.19247,-2.70735 3.78701,-3.73718 1.59452,-1.02977 3.47141,-1.87686 5.63069,-2.54128 2.15924,-0.66436 4.48459,-1.19587 6.97607,-1.59454 2.49143,-0.39859 5.08254,-0.66435 7.77334,-0.79726 2.69074,-0.16606 5.38151,-0.24911 8.07232,-0.24915 4.08594,4e-5 7.55737,0.26579 10.41428,0.79727 2.89004,0.49832 5.28183,1.04644 7.1754,1.64436 2.19242,0.73086 4.00287,1.54473 5.43137,2.44163 l 0,-8.07232 c -6e-5,-1.36196 -0.33226,-2.52463 -0.99658,-3.48804 -0.66445,-0.99654 -1.56138,-1.82702 -2.69077,-2.49145 -1.12952,-0.69757 -2.42508,-1.24569 -3.88667,-1.64436 -1.46171,-0.43181 -2.98981,-0.764 -4.58428,-0.99659 -1.59459,-0.23248 -3.22233,-0.38197 -4.88326,-0.44846 -1.62779,-0.0664 -3.15588,-0.0996 -4.58427,-0.0997 -1.49492,5e-5 -3.08945,0.0499 -4.7836,0.14949 -1.69423,0.0665 -3.38841,0.21597 -5.08257,0.44846 -1.661,0.23259 -3.27214,0.56478 -4.83342,0.99659 -1.52812,0.39867 -2.89012,0.94679 -4.08599,1.64436 -1.19592,0.69765 -2.15928,1.54474 -2.89009,2.54128 -0.69763,0.9634 -1.04643,2.12608 -1.04641,3.48804 l -12.35762,-3.18906 c -10e-6,-2.22566 0.54811,-4.15239 1.64436,-5.78018 1.09623,-1.66092 2.54128,-3.07275 4.33514,-4.23548 1.82705,-1.16262 3.91987,-2.10937 6.27846,-2.84025 2.35856,-0.764 4.80018,-1.34534 7.32488,-1.74402 2.55787,-0.4318 5.09915,-0.73077 7.62386,-0.89693 2.52463,-0.16604 4.88321,-0.24909 7.07573,-0.24914"
         style="font-size:102.05001831px;font-style:normal;font-variant:normal;font-weight:normal;font-stretch:normal;line-height:125%;letter-spacing:0px;word-spacing:0px;fill:#1a1a1a;fill-opacity:1;stroke:none;font-family:Revalia;-inkscape-font-specification:Revalia"
         id="path3018"
         inkscape:connector-curvature="0" />
      <path
         d="m 651.49646,451.89697 -11.36104,0 0,-74.84332 11.36104,0 0,74.84332"
         style="font-size:102.05001831px;font-style:normal;font-variant:normal;font-weight:normal;font-stretch:normal;line-height:125%;letter-spacing:0px;word-spacing:0px;fill:#1a1a1a;fill-opacity:1;stroke:none;font-family:Revalia;-inkscape-font-specification:Revalia"
         id="path3022"
         inkscape:connector-curvature="0" />
    </g>
  </g>
</svg>
